<?xml version="1.0" encoding="UTF-8" standalone="no"?>
<!-- Created with Inkscape (http://www.inkscape.org/) -->

<svg
   width="210mm"
   height="297mm"
   viewBox="0 0 210 297"
   version="1.1"
   id="svg1"
   inkscape:version="1.4.2 (ebf0e94, 2025-05-08)"
   sodipodi:docname="logos.svg"
   xml:space="preserve"
   xmlns:inkscape="http://www.inkscape.org/namespaces/inkscape"
   xmlns:sodipodi="http://sodipodi.sourceforge.net/DTD/sodipodi-0.dtd"
   xmlns:xlink="http://www.w3.org/1999/xlink"
   xmlns="http://www.w3.org/2000/svg"
   xmlns:svg="http://www.w3.org/2000/svg"><sodipodi:namedview
     id="namedview1"
     pagecolor="#ffffff"
     bordercolor="#000000"
     borderopacity="0.25"
     inkscape:showpageshadow="2"
     inkscape:pageopacity="0.0"
     inkscape:pagecheckerboard="0"
     inkscape:deskcolor="#d1d1d1"
     inkscape:document-units="mm"
     showguides="false"
     inkscape:zoom="2.8284271"
     inkscape:cx="248.90159"
     inkscape:cy="238.82532"
     inkscape:window-width="2560"
     inkscape:window-height="1369"
     inkscape:window-x="1912"
     inkscape:window-y="-8"
     inkscape:window-maximized="1"
     inkscape:current-layer="g2"><sodipodi:guide
       position="56.883554,205.68438"
       orientation="0,-1"
       id="guide9"
       inkscape:locked="false" /><sodipodi:guide
       position="89.701392,208.39954"
       orientation="0,-1"
       id="guide10"
       inkscape:locked="false" /><sodipodi:guide
       position="47.507948,209.57229"
       orientation="1,0"
       id="guide11"
       inkscape:locked="false" /></sodipodi:namedview><defs
     id="defs1"><linearGradient
       id="linearGradient878"
       inkscape:collect="always"><stop
         style="stop-color:#d8bd84;stop-opacity:1;"
         offset="0"
         id="stop878" /><stop
         style="stop-color:#e8c843;stop-opacity:0;"
         offset="1"
         id="stop879" /></linearGradient><linearGradient
       id="linearGradient877"
       inkscape:collect="always"><stop
         style="stop-color:#dabf7d;stop-opacity:1;"
         offset="0"
         id="stop876" /><stop
         style="stop-color:#bebebe;stop-opacity:0;"
         offset="1"
         id="stop877" /></linearGradient><linearGradient
       id="linearGradient873"
       inkscape:collect="always"><stop
         style="stop-color:#dabf7d;stop-opacity:1;"
         offset="0"
         id="stop873" /><stop
         style="stop-color:#e0e0e0;stop-opacity:0;"
         offset="1"
         id="stop874" /></linearGradient><inkscape:path-effect
       effect="powerstroke"
       message=""
       id="path-effect11"
       is_visible="true"
       lpeversion="1.3"
       scale_width="0"
       interpolator_type="CentripetalCatmullRom"
       interpolator_beta="0.2915952"
       start_linecap_type="zerowidth"
       end_linecap_type="zerowidth"
       offset_points="11,0 | 41.5,0 | 79,0 | 104.5,0 | 131.5,0 | 155.5,0 | 165,0 | 184.5,0 | 218.5,0"
       linejoin_type="round"
       miter_limit="4"
       not_jump="false"
       sort_points="true" /><inkscape:path-effect
       effect="fill_between_many"
       method="bsplinespiro"
       autoreverse="false"
       close="false"
       join="false"
       linkedpaths="#text1,0,1"
       id="path-effect12" /><linearGradient
       inkscape:collect="always"
       xlink:href="#linearGradient873"
       id="linearGradient874"
       x1="91.458954"
       y1="104.75465"
       x2="91.429756"
       y2="62.061474"
       gradientUnits="userSpaceOnUse"
       spreadMethod="pad" /><radialGradient
       inkscape:collect="always"
       xlink:href="#linearGradient877"
       id="radialGradient877"
       cx="80.967491"
       cy="98.064125"
       fx="80.967491"
       fy="98.064125"
       r="32.778103"
       gradientTransform="matrix(0.0181799,-1.3697606,3.2079622,0.0425771,-235.09049,201.18358)"
       gradientUnits="userSpaceOnUse" /><linearGradient
       inkscape:collect="always"
       xlink:href="#linearGradient878"
       id="linearGradient879"
       x1="37.76976"
       y1="93.40853"
       x2="121.27354"
       y2="93.40853"
       gradientUnits="userSpaceOnUse"
       gradientTransform="matrix(0.99369317,0,0,0.99369317,0.50152934,0.58911151)" /></defs><g
     inkscape:label="Layer 1"
     inkscape:groupmode="layer"
     id="layer1"><rect
       style="opacity:1;fill:#262625;fill-opacity:1;stroke:url(#linearGradient879);stroke-width:0.397477;stroke-dasharray:none;stroke-dashoffset:51.9054"
       id="rect873"
       width="82.977135"
       height="27.734358"
       x="38.033081"
       y="79.541351" /><path
       d="m 48.902441,82.841455 c -0.02894,0.0048 -0.0569,0.01688 -0.08423,0.03617 -0.02572,0.01768 -0.05225,0.04036 -0.07958,0.0677 -0.02572,0.02572 -0.05225,0.05369 -0.07958,0.08423 -0.02572,0.03055 -0.05323,0.06046 -0.08216,0.0894 l -0.800468,0.788582 h 0.226343 l 0.989087,-0.622184 c 0.03698,-0.02894 0.06638,-0.05305 0.08888,-0.07235 0.02412,-0.0209 0.04295,-0.03876 0.05581,-0.05323 0.01286,-0.01447 0.02056,-0.02699 0.02377,-0.03824 0.0048,-0.01286 0.0072,-0.02589 0.0072,-0.03876 0,-0.01286 -0.0014,-0.02831 -0.0047,-0.04599 -0.0016,-0.01769 -0.0026,-0.03985 -0.0026,-0.06718 -0.03376,-0.08521 -0.119602,-0.128158 -0.257866,-0.128158 z m 3.75481,1.333769 c -0.427651,0 -0.81976,0.09646 -1.176672,0.289388 -0.356912,0.192925 -0.638606,0.463997 -0.844393,0.81287 -0.205787,0.347266 -0.308509,0.736963 -0.308509,1.169438 0,0.474275 0.101286,0.882805 0.303858,1.225248 0.204179,0.340835 0.48972,0.599332 0.856278,0.77618 0.366559,0.176848 0.782783,0.267052 1.24902,0.270268 0.03376,-0.01286 0.08343,-0.01912 0.149345,-0.01912 0.508036,0.366559 0.972033,0.764926 1.391646,1.195793 0.01286,0.0064 0.0259,0.02285 0.03876,0.04858 0.06752,-0.05306 0.23197,-0.142282 0.494027,-0.267684 l -0.532784,-0.393258 -0.3545,-0.257865 c -0.09325,-0.07235 -0.267857,-0.21417 -0.523483,-0.42478 0.498391,-0.12701 0.896299,-0.39033 1.193726,-0.79065 0.310288,-0.409966 0.465605,-0.897102 0.465605,-1.461409 0,-0.453375 -0.105133,-0.844049 -0.315743,-1.172022 -0.210611,-0.329581 -0.499539,-0.578948 -0.866097,-0.747758 -0.364951,-0.168809 -0.771529,-0.253214 -1.220081,-0.253214 z m -5.206401,0.0987 c 0.0209,0.464628 0.03101,0.734724 0.03101,0.810286 l 0.0098,0.552421 -0.0098,2.163176 -0.04082,0.791166 c 0.06109,0 0.150321,-0.002 0.267684,-0.0052 0.117363,-0.0032 0.202744,-0.0047 0.255798,-0.0047 0.0627,0 0.155776,-0.0014 0.27957,-0.0046 0.123793,-0.0032 0.215433,-0.0052 0.274918,-0.0052 0.178456,0 0.437929,0.0068 0.778764,0.01964 l 0.436666,0.0093 c -0.0064,-0.08521 -0.0098,-0.21061 -0.0098,-0.376205 -0.202571,0.03376 -0.393544,0.05064 -0.573608,0.05064 -0.376204,0.01929 -0.75482,0.02894 -1.135848,0.02894 -0.0064,-0.125402 -0.0098,-0.30914 -0.0098,-0.551904 v -0.791167 -0.503845 h 0.3545 0.277502 l 0.344682,0.0093 c 0.139871,0 0.327973,0.01401 0.564307,0.04134 -0.01929,-0.120578 -0.02894,-0.183279 -0.02894,-0.188102 0,-0.0048 0.0096,-0.06752 0.02894,-0.188102 -0.0627,0.0032 -0.155776,0.008 -0.27957,0.01447 -0.123794,0.0064 -0.218821,0.01125 -0.284737,0.01447 l -0.33538,0.01912 h -0.641304 v -0.364319 -0.276986 l 0.02894,-0.947745 h 0.465605 l 0.631486,0.01912 c 0.09485,0.0048 0.196141,0.01206 0.303857,0.0217 0.109325,0.0096 0.195682,0.01591 0.258383,0.01912 -0.01286,-0.04019 -0.01964,-0.102893 -0.01964,-0.188102 0,-0.02572 0.0034,-0.05851 0.0098,-0.0987 0.0064,-0.04019 0.0098,-0.07011 0.0098,-0.0894 -0.289389,0.01286 -0.506429,0.01964 -0.651123,0.01964 h -0.909506 z m 18.619536,0 c 0.0209,0.464628 0.03152,0.734724 0.03152,0.810286 l 0.0093,0.552421 -0.0093,2.163176 -0.04134,0.791166 c 0.06109,0 0.150321,-0.002 0.267684,-0.0052 0.117363,-0.0032 0.202744,-0.0047 0.255798,-0.0047 0.0627,0 0.155776,-0.0014 0.27957,-0.0046 0.123794,-0.0032 0.215433,-0.0052 0.274919,-0.0052 0.178456,0 0.438445,0.0068 0.77928,0.01964 l 0.436149,0.0093 c -0.0064,-0.08521 -0.0093,-0.21061 -0.0093,-0.376205 -0.202572,0.03376 -0.394062,0.05064 -0.574126,0.05064 -0.376204,0.01929 -0.75482,0.02894 -1.135848,0.02894 -0.0064,-0.125402 -0.0098,-0.30914 -0.0098,-0.551904 v -0.791167 -0.503845 h 0.3545 0.277503 l 0.344681,0.0093 c 0.139871,0 0.327973,0.01401 0.564307,0.04134 -0.01929,-0.120578 -0.02894,-0.183279 -0.02894,-0.188102 0,-0.0048 0.0096,-0.06752 0.02894,-0.188102 -0.0627,0.0032 -0.155776,0.008 -0.279569,0.01447 -0.123794,0.0064 -0.218821,0.01125 -0.284738,0.01447 l -0.334863,0.01912 h -0.641821 v -0.364319 -0.276986 l 0.02894,-0.947745 h 0.465604 l 0.632003,0.01912 c 0.09486,0.0048 0.196141,0.01206 0.303858,0.0217 0.109324,0.0096 0.195164,0.01591 0.257865,0.01912 -0.01286,-0.04019 -0.01912,-0.102893 -0.01912,-0.188102 0,-0.02572 0.0029,-0.05851 0.0093,-0.0987 0.0064,-0.04019 0.0098,-0.07011 0.0098,-0.0894 -0.289388,0.01286 -0.506429,0.01964 -0.651123,0.01964 h -0.908989 z m -10.152869,0.0098 0.01964,0.168982 0.01912,0.985987 v 0.682645 l -0.02894,0.701766 c 0,0.319935 0.0275,0.597265 0.08217,0.831991 0.05627,0.233118 0.173461,0.42989 0.351917,0.590661 0.11897,0.104502 0.214457,0.173978 0.286804,0.20774 0.300642,0.157555 0.663353,0.236161 1.087789,0.236161 0.565914,0 1.013489,-0.164963 1.34307,-0.494544 0.154341,-0.143086 0.272507,-0.350481 0.354501,-0.622184 0.05949,-0.167202 0.09566,-0.423287 0.10852,-0.768945 l 0.06046,-1.748731 c 0.0032,-0.08682 0.01143,-0.214629 0.02429,-0.383439 0.01286,-0.170417 0.02056,-0.299666 0.02377,-0.38809 -0.03859,0.01286 -0.101286,0.01912 -0.188103,0.01912 -0.11897,-0.01286 -0.203834,-0.01912 -0.255281,-0.01912 l 0.01912,0.574125 c 0.01286,0.30225 0.01912,0.528937 0.01912,0.680062 0,0.0836 -0.0014,0.205615 -0.0047,0.366386 -0.0032,0.160771 -0.0046,0.282326 -0.0046,0.364319 -0.008,0.342443 -0.02107,0.618797 -0.03876,0.829407 -0.01608,0.209002 -0.05949,0.397104 -0.130224,0.564306 -0.09646,0.220257 -0.244545,0.397737 -0.443901,0.532784 -0.08682,0.06109 -0.205442,0.111277 -0.356567,0.149862 -0.149517,0.03858 -0.284106,0.05788 -0.403076,0.05788 -0.360128,0 -0.661574,-0.08538 -0.904338,-0.255799 -0.241157,-0.172025 -0.390674,-0.432474 -0.448551,-0.781347 -0.03376,-0.178456 -0.05064,-0.395497 -0.05064,-0.651123 0,-0.05627 0.002,-0.140675 0.0052,-0.253215 0.0032,-0.11254 0.0047,-0.195968 0.0047,-0.250631 l 0.03152,-1.343587 0.01912,-0.424263 c 0,-0.07235 0.0034,-0.125402 0.0098,-0.159164 -0.02251,0.0016 -0.05145,0.005 -0.08682,0.0098 l -0.106453,0.01447 c -0.03537,0.0032 -0.06333,0.0047 -0.08423,0.0047 -0.02251,0 -0.05627,-0.0014 -0.101286,-0.0047 l -0.134875,-0.01447 c -0.04502,-0.0048 -0.07832,-0.0082 -0.09922,-0.0098 z m 5.52266,0 c -0.05948,0.02572 -0.161747,0.03876 -0.306441,0.03876 -0.01286,0 -0.108348,-0.0096 -0.286804,-0.02894 l 0.02894,1.34307 v 0.465605 0.532784 c -0.0032,0.06592 -0.0056,0.166226 -0.0072,0.301274 -0.0016,0.135047 -0.0055,0.235874 -0.01189,0.30179 l -0.06046,1.362191 c 0.14791,-0.01286 0.257406,-0.01912 0.328145,-0.01912 0.07235,0 0.174093,0.0063 0.305925,0.01912 l -0.05995,-1.343071 c 0,-0.0418 -0.002,-0.105936 -0.0052,-0.192753 -0.0032,-0.08682 -0.0047,-0.151469 -0.0047,-0.19327 0,-0.262057 0.0063,-0.656577 0.01912,-1.183907 z m 1.12603,0 0.02894,0.720887 0.02894,2.213818 -0.05788,1.222664 c 0,0.07395 -0.0038,0.127009 -0.01189,0.159164 0.03858,0 0.09262,-0.0014 0.161748,-0.0047 0.06913,-0.0032 0.121209,-0.0047 0.156579,-0.0047 0.07074,0 0.165767,0.0063 0.284737,0.01912 v -0.137459 l -0.01964,-1.097091 v -0.277502 -0.463021 c 0.05466,0 0.134244,0.0014 0.238745,0.0047 0.104502,0.0032 0.183624,0.0052 0.236678,0.0052 0.170418,0 0.298231,-0.0068 0.38344,-0.01964 0.286172,-0.04984 0.516706,-0.118798 0.691947,-0.207222 0.197748,-0.09485 0.355936,-0.229903 0.474906,-0.405143 0.125402,-0.18971 0.188103,-0.417374 0.188103,-0.682646 0,-0.122186 -0.01349,-0.230706 -0.04082,-0.325561 -0.05788,-0.223472 -0.168809,-0.387459 -0.332796,-0.49196 -0.163987,-0.104501 -0.343419,-0.168638 -0.537952,-0.192753 -0.194533,-0.02412 -0.433737,-0.03617 -0.718302,-0.03617 l -0.772046,0.0098 c -0.170417,0 -0.29823,-0.0034 -0.383439,-0.0098 z m -9.839193,0.108521 c 0.257234,0 0.501778,0.05305 0.733289,0.159163 0.23151,0.106109 0.425412,0.257062 0.58136,0.453203 0.152732,0.197748 0.25643,0.40853 0.311092,0.632002 0.05627,0.221864 0.08423,0.478926 0.08423,0.771529 0,0.197749 -0.02027,0.388263 -0.06046,0.571542 -0.05466,0.28778 -0.160771,0.546794 -0.318327,0.776697 -0.155948,0.228295 -0.355132,0.410138 -0.597896,0.545186 -0.241157,0.13344 -0.505453,0.199988 -0.793234,0.199988 -0.517683,0 -0.942118,-0.19149 -1.273307,-0.574125 -0.30225,-0.334404 -0.453719,-0.797884 -0.453719,-1.39113 0,-0.389066 0.06465,-0.745978 0.19327,-1.070736 0.128617,-0.326365 0.326825,-0.586814 0.595312,-0.781347 0.270096,-0.194533 0.602892,-0.291972 0.998389,-0.291972 z m 10.975041,0.127641 c 0.11254,0 0.230706,0.01062 0.3545,0.03152 0.233118,0.02412 0.401469,0.09646 0.504362,0.217041 0.138263,0.157556 0.207223,0.355304 0.207223,0.593246 0,0.117363 -0.02268,0.245176 -0.0677,0.383439 -0.04341,0.136655 -0.09933,0.241788 -0.168466,0.315743 -0.157555,0.181671 -0.411746,0.290192 -0.762227,0.325561 -0.141479,0.01447 -0.249999,0.0217 -0.325562,0.0217 -0.144694,0 -0.246955,-0.0072 -0.306441,-0.0217 v -1.331185 l 0.0098,-0.366385 V 84.54161 c 0.225079,-0.01447 0.409794,-0.0217 0.554488,-0.0217 z m 26.235091,2.907832 c -0.365421,0 -0.592898,0.112762 -0.682129,0.337964 0,0.208206 0.0088,0.365062 0.02584,0.471289 0.02549,0.03824 0.165701,0.159329 0.420646,0.363286 l 2.613278,1.644344 h 0.598929 L 90.797559,88.16051 c -0.101978,-0.110476 -0.208368,-0.22519 -0.318844,-0.344165 -0.110477,-0.123223 -0.212444,-0.218818 -0.305924,-0.286804 -0.07648,-0.04674 -0.154912,-0.08056 -0.235645,-0.101803 z M 69.783854,91.05439 c -0.04674,0.407913 -0.0894,0.777548 -0.127641,1.108977 -0.03824,0.32718 -0.07401,0.601219 -0.108003,0.822172 l -0.80977,6.061645 -0.573608,3.441646 v 0.15917 c 0.118974,-0.017 0.292997,-0.0253 0.522448,-0.0253 0.08498,0 0.197744,0.004 0.337964,0.0124 0.14022,0.008 0.244657,0.0129 0.312643,0.0129 v -0.36329 l 0.07648,-1.67018 0.732771,-6.526216 c 0.4674,0.896557 0.898813,1.720628 1.293978,2.472717 0.395166,0.747839 0.773125,1.476832 1.134298,2.18643 0.361172,0.705349 0.67345,1.336279 0.936894,1.892909 l 0.917773,1.87999 h 0.178801 c 0.216704,-0.45041 0.428965,-0.89847 0.63717,-1.34462 0.212454,-0.44616 0.384526,-0.79914 0.516248,-1.05834 l 0.885734,-1.727023 2.351794,-4.302063 c 0.101979,0.824322 0.206416,1.650862 0.312643,2.479435 L 79.83492,102.648 c 0.174213,-0.034 0.452673,-0.0512 0.835091,-0.0512 0.178462,0 0.420637,0.0172 0.726571,0.0512 -0.05949,-0.48865 -0.146757,-1.15391 -0.261483,-1.99523 -0.110476,-0.845566 -0.206071,-1.625028 -0.286804,-2.338874 L 80.039042,91.05439 H 79.83492 c -0.199706,0.365422 -0.465421,0.838978 -0.79685,1.421102 -0.32718,0.577876 -0.541394,0.958305 -0.643372,1.141016 l -2.192631,4.047298 c -0.191209,0.365422 -0.388773,0.728683 -0.592729,1.089856 -0.199707,0.356923 -0.435509,0.783916 -0.70745,1.281058 -0.88806,-1.48718 -1.742043,-3.008379 -2.562117,-4.563545 L 70.070658,91.05439 Z m 18.61075,0.159164 c 0.05524,1.227987 0.0832,1.941764 0.0832,2.141471 l 0.02532,1.459859 -0.02532,5.716966 -0.108521,2.09031 c 0.161465,0 0.397266,-0.004 0.70745,-0.0124 0.310184,-0.009 0.535191,-0.0129 0.675411,-0.0129 0.165714,0 0.41231,-0.004 0.73949,-0.0129 0.32718,-0.008 0.569355,-0.0124 0.726571,-0.0124 0.471648,0 1.157981,0.0172 2.058789,0.0512 l 1.153418,0.0253 c -0.01699,-0.2252 -0.02532,-0.5566 -0.02532,-0.99426 -0.535385,0.0892 -1.040805,0.13385 -1.516703,0.13385 -0.994287,0.051 -1.99485,0.0765 -3.001884,0.0765 -0.017,-0.33143 -0.02584,-0.81825 -0.02584,-1.45986 v -2.090314 -1.332219 h 0.936894 0.733288 l 0.911056,0.02584 c 0.36967,0 0.866766,0.03577 1.491382,0.108004 -0.05099,-0.318682 -0.07648,-0.48438 -0.07648,-0.497127 0,-0.01275 0.0255,-0.178445 0.07648,-0.497127 -0.165715,0.0085 -0.411793,0.02125 -0.738973,0.03824 -0.32718,0.01699 -0.578197,0.02974 -0.752409,0.03824 l -0.885734,0.05116 h -1.695504 v -0.962731 -0.732772 l 0.07648,-2.504757 h 1.230416 l 1.669665,0.05116 c 0.250696,0.01275 0.518363,0.03187 0.803052,0.05736 0.288938,0.02549 0.516415,0.04214 0.682129,0.05064 -0.03399,-0.106227 -0.05116,-0.271926 -0.05116,-0.497127 0,-0.06799 0.0083,-0.154739 0.02532,-0.260966 0.01699,-0.10623 0.02584,-0.185174 0.02584,-0.236161 -0.764836,0.03399 -1.338407,0.05116 -1.720825,0.05116 h -2.402954 z m 8.438762,0 v 0.414445 l 0.102319,3.237528 -0.07648,5.851323 c -0.01275,0.32293 -0.02991,0.65432 -0.05116,0.99425 -0.017,0.33568 -0.02532,0.64796 -0.02532,0.9369 0.348425,-0.034 0.618044,-0.0512 0.809253,-0.0512 0.186959,0 0.437459,0.0172 0.751892,0.0512 l -0.05064,-3.473692 v -0.72657 -1.332219 h 0.624251 l 1.332214,1.561662 1.98851,2.562119 c 0.16996,0.2337 0.36362,0.50383 0.58033,0.80977 0.22095,0.30168 0.36507,0.5012 0.43305,0.59893 0.11898,-0.008 0.28077,-0.0232 0.48472,-0.0444 0.20396,-0.0213 0.35691,-0.032 0.45889,-0.032 0.11048,0 0.27176,0.0108 0.48421,0.032 0.21245,0.0213 0.38011,0.036 0.50333,0.0444 l -0.28681,-0.36329 -0.80925,-0.94361 -3.44165,-4.359423 c 0.96454,-0.165714 1.77392,-0.509857 2.42828,-1.032495 0.6586,-0.526887 0.98805,-1.245085 0.98805,-2.15439 0,-0.458902 -0.11277,-0.883425 -0.33797,-1.274341 -0.27618,-0.548133 -0.70317,-0.903069 -1.28105,-1.064535 -0.57788,-0.161465 -1.27253,-0.242362 -2.08411,-0.242362 l -2.217957,0.05116 z m 10.127544,0 c 0.0553,1.227987 0.0832,1.941764 0.0832,2.141471 l 0.0253,1.459859 -0.0253,5.716966 -0.10852,2.09031 c 0.16147,0 0.39727,-0.004 0.70745,-0.0124 0.31018,-0.009 0.53571,-0.0129 0.67593,-0.0129 0.16571,0 0.41179,-0.004 0.73897,-0.0129 0.32718,-0.008 0.56935,-0.0124 0.72657,-0.0124 0.47165,0 1.15799,0.0172 2.05879,0.0512 l 1.15394,0.0253 c -0.017,-0.2252 -0.0258,-0.5566 -0.0258,-0.99426 -0.53538,0.0892 -1.0408,0.13385 -1.5167,0.13385 -0.99429,0.051 -1.99485,0.0765 -3.00189,0.0765 -0.017,-0.33143 -0.0258,-0.81825 -0.0258,-1.45986 v -2.090314 -1.332219 h 0.9369 0.73329 l 0.91105,0.02584 c 0.36967,0 0.86729,0.03577 1.4919,0.108004 -0.051,-0.318682 -0.077,-0.48438 -0.077,-0.497127 0,-0.01275 0.026,-0.178445 0.077,-0.497127 -0.16571,0.0085 -0.41231,0.02125 -0.73949,0.03824 -0.32718,0.01699 -0.5782,0.02974 -0.75241,0.03824 l -0.88573,0.05116 h -1.69551 v -0.962731 -0.732772 l 0.0765,-2.504757 h 1.23042 l 1.66967,0.05116 c 0.25069,0.01275 0.51835,0.03187 0.80305,0.05736 0.28893,0.02549 0.51641,0.04214 0.68213,0.05064 -0.034,-0.106227 -0.0512,-0.271926 -0.0512,-0.497127 0,-0.06799 0.009,-0.154739 0.0258,-0.260966 0.017,-0.10623 0.0253,-0.185174 0.0253,-0.236161 -0.76484,0.03399 -1.33842,0.05116 -1.72083,0.05116 h -2.40295 z m -59.427377,0.02532 c 0.05524,0.679854 0.08268,1.385307 0.08268,2.11615 v 7.176825 l -0.108521,2.09031 c 0.161466,0 0.397784,-0.004 0.707968,-0.0124 0.310183,-0.009 0.535191,-0.0129 0.675411,-0.0129 0.165714,0 0.41231,-0.004 0.739489,-0.0129 0.32718,-0.008 0.569354,-0.0124 0.726571,-0.0124 0.471649,0 1.157466,0.0172 2.058272,0.0512 l 1.205095,0.0253 c -0.03399,-0.24645 -0.05116,-0.41215 -0.05116,-0.49713 0,-0.11898 0.01717,-0.28467 0.05116,-0.49713 -0.854067,0.0892 -1.385496,0.13385 -1.593701,0.13385 -0.994287,0.051 -2.003176,0.0765 -3.027206,0.0765 0,-0.16996 -0.0044,-0.41461 -0.01292,-0.73329 -0.0085,-0.31868 -0.01292,-0.56086 -0.01292,-0.72657 v -2.090314 c 0,-0.212455 -0.0039,-0.539948 -0.0124,-0.981853 -0.0085,-0.441905 -0.01292,-0.775253 -0.01292,-1.000455 0,-0.849818 0.02549,-1.695476 0.07648,-2.536796 l 0.101802,-2.555917 h -0.413928 z m 8.464083,5.17e-4 0.05116,0.445968 0.05064,2.606559 v 1.804024 l -0.07648,1.854667 c 0,0.845569 0.07257,1.578463 0.217041,2.19883 0.148718,0.61612 0.458527,1.13675 0.930176,1.56166 0.314432,0.27619 0.567401,0.45906 0.75861,0.54829 0.794579,0.41641 1.753,0.62425 2.87476,0.62425 1.495679,0 2.679107,-0.43532 3.550171,-1.30638 0.407912,-0.37816 0.720189,-0.92624 0.936893,-1.644342 0.157216,-0.441905 0.252811,-1.119913 0.286805,-2.033467 l 0.159163,-4.620907 c 0.0085,-0.229451 0.02957,-0.567221 0.06356,-1.013375 0.03399,-0.450404 0.05558,-0.792078 0.06408,-1.025777 -0.101978,0.03399 -0.267677,0.05064 -0.497128,0.05064 -0.314432,-0.03399 -0.539957,-0.05064 -0.675927,-0.05064 l 0.05116,1.516703 c 0.03399,0.798829 0.05116,1.397892 0.05116,1.797307 0,0.220952 -0.0044,0.544024 -0.01292,0.968933 -0.0085,0.424908 -0.01292,0.745512 -0.01292,0.962215 -0.02124,0.905056 -0.05506,1.636 -0.101803,2.192631 -0.04249,0.552381 -0.157205,1.049474 -0.344165,1.491379 -0.254945,0.58212 -0.646168,1.05178 -1.173055,1.4087 -0.22945,0.16147 -0.54368,0.29335 -0.943095,0.39533 -0.395165,0.10198 -0.750102,0.15296 -1.064534,0.15296 -0.951796,0 -1.748422,-0.22553 -2.390035,-0.67593 -0.637363,-0.45465 -1.03249,-1.14293 -1.185457,-2.064989 -0.08923,-0.471648 -0.133842,-1.04522 -0.133842,-1.720825 0,-0.148718 0.0044,-0.371774 0.01292,-0.66921 0.0085,-0.297436 0.0124,-0.518539 0.0124,-0.663008 l 0.0832,-3.550171 0.05064,-1.121379 c 0,-0.191208 0.0088,-0.331415 0.02584,-0.420646 -0.05949,0.0042 -0.135963,0.01257 -0.229443,0.02532 l -0.280603,0.03824 c -0.09348,0.0085 -0.168002,0.01292 -0.223242,0.01292 -0.05949,0 -0.14871,-0.0044 -0.267684,-0.01292 l -0.356568,-0.03824 c -0.118972,-0.01273 -0.206242,-0.02106 -0.261482,-0.02532 z m 29.452465,0 c -0.157216,0.06799 -0.426835,0.101803 -0.809253,0.101803 -0.03399,0 -0.286961,-0.02549 -0.75861,-0.07648 l 0.07648,3.55017 v 1.2299 1.408699 c -0.0085,0.174213 -0.01485,0.439927 -0.01912,0.796851 -0.0042,0.356923 -0.01504,0.622121 -0.03204,0.796333 L 83.748376,102.648 c 0.390917,-0.034 0.679655,-0.0512 0.866614,-0.0512 0.19121,0 0.461345,0.0172 0.80977,0.0512 l -0.159163,-3.550173 c 0,-0.110477 -0.0044,-0.280596 -0.01292,-0.510046 -0.0085,-0.229451 -0.01292,-0.399054 -0.01292,-0.50953 0,-0.692602 0.01717,-1.735824 0.05116,-3.129525 z m 14.251327,0.624251 c 0.488642,0 0.837212,0.0088 1.045412,0.02584 0.55238,0.09773 0.97937,0.308038 1.28106,0.630969 0.36542,0.365421 0.54829,0.860048 0.54829,1.484664 0,0.628865 -0.19561,1.151452 -0.58653,1.567863 -0.39091,0.41641 -0.90908,0.694871 -1.55494,0.835091 -0.44191,0.06799 -0.903234,0.102319 -1.383382,0.102319 -0.08923,0 -0.220595,-0.0044 -0.394808,-0.01292 -0.174212,-0.0085 -0.304142,-0.01292 -0.389123,-0.01292 l 0.05116,-4.595068 c 0.297436,-0.01699 0.758245,-0.02584 1.382861,-0.02584 z"
       id="path12"
       style="fill:#000000"
       inkscape:original-d="M 0,0"
       inkscape:path-effect="#path-effect12" /><g
       id="g873"
       style="fill:url(#linearGradient874);fill-opacity:1"
       inkscape:export-filename="Lumière.png"
       inkscape:export-xdpi="96"
       inkscape:export-ydpi="96"><path
         id="text1"
         style="font-size:26.1064px;font-family:IrisUPC;-inkscape-font-specification:IrisUPC;letter-spacing:0px;fill:url(#radialGradient877);fill-rule:nonzero;stroke:none;stroke-width:0;stroke-dashoffset:51.9054;fill-opacity:1;opacity:1"
         d="M 48.902441 82.841455 C 48.873503 82.846278 48.84554 82.858336 48.818209 82.877629 C 48.792485 82.895313 48.765958 82.917994 48.738627 82.945325 C 48.712904 82.971048 48.686377 82.999011 48.659045 83.029557 C 48.633322 83.060104 48.605819 83.090019 48.57688 83.118958 L 47.776412 83.90754 L 48.002755 83.90754 L 48.991842 83.285356 C 49.028819 83.256417 49.058217 83.232301 49.080725 83.213009 C 49.104841 83.192108 49.123674 83.174251 49.136536 83.159782 C 49.149397 83.145312 49.157091 83.132795 49.160307 83.121541 C 49.16513 83.10868 49.167542 83.095646 49.167542 83.082784 C 49.167542 83.069922 49.166106 83.054477 49.162891 83.036792 C 49.161283 83.019107 49.160307 82.996944 49.160307 82.969613 C 49.126545 82.884404 49.040705 82.841455 48.902441 82.841455 z M 52.657251 84.175224 C 52.2296 84.175224 51.837491 84.271686 51.480579 84.464612 C 51.123667 84.657537 50.841973 84.928609 50.636186 85.277482 C 50.430399 85.624748 50.327677 86.014445 50.327677 86.44692 C 50.327677 86.921195 50.428963 87.329725 50.631535 87.672168 C 50.835714 88.013003 51.121255 88.2715 51.487813 88.448348 C 51.854372 88.625196 52.270596 88.7154 52.736833 88.718616 C 52.770595 88.705754 52.820261 88.699495 52.886178 88.699495 C 53.394214 89.066054 53.858211 89.464421 54.277824 89.895288 C 54.290686 89.901719 54.30372 89.918141 54.316581 89.943864 C 54.384105 89.890809 54.548551 89.801582 54.810608 89.67618 L 54.277824 89.282922 L 53.923324 89.025057 C 53.830076 88.95271 53.655467 88.810887 53.399841 88.600277 C 53.898232 88.473267 54.29614 88.209947 54.593567 87.809627 C 54.903855 87.399661 55.059172 86.912525 55.059172 86.348218 C 55.059172 85.894843 54.954039 85.504169 54.743429 85.176196 C 54.532818 84.846615 54.24389 84.597248 53.877332 84.428438 C 53.512381 84.259629 53.105803 84.175224 52.657251 84.175224 z M 47.45085 84.273926 C 47.471751 84.738554 47.481856 85.00865 47.481856 85.084212 L 47.491675 85.636633 L 47.481856 87.799809 L 47.441032 88.590975 C 47.502125 88.590975 47.591353 88.589023 47.708716 88.585807 C 47.826079 88.582592 47.91146 88.581156 47.964514 88.581156 C 48.027215 88.581156 48.12029 88.579721 48.244084 88.576506 C 48.367877 88.57329 48.459517 88.571338 48.519002 88.571338 C 48.697458 88.571338 48.956931 88.578113 49.297766 88.590975 L 49.734432 88.600277 C 49.728001 88.515068 49.724613 88.389667 49.724613 88.224072 C 49.522042 88.257834 49.331069 88.274715 49.151005 88.274715 C 48.774801 88.294008 48.396185 88.303654 48.015157 88.303654 C 48.008726 88.178252 48.005339 87.994514 48.005339 87.75175 L 48.005339 86.960583 L 48.005339 86.456738 L 48.359839 86.456738 L 48.637341 86.456738 L 48.982023 86.46604 C 49.121894 86.46604 49.309996 86.48005 49.54633 86.507381 C 49.527037 86.386803 49.517391 86.324102 49.517391 86.319279 C 49.517391 86.314456 49.527037 86.251755 49.54633 86.131177 C 49.483629 86.134392 49.390554 86.139215 49.26676 86.145646 C 49.142966 86.152077 49.047939 86.1569 48.982023 86.160116 L 48.646643 86.179236 L 48.005339 86.179236 L 48.005339 85.814917 L 48.005339 85.537931 L 48.034277 84.590186 L 48.499882 84.590186 L 49.131368 84.609306 C 49.226223 84.614129 49.327509 84.621364 49.435225 84.63101 C 49.54455 84.640656 49.630907 84.646915 49.693608 84.65013 C 49.680746 84.609937 49.673971 84.547237 49.673971 84.462028 C 49.673971 84.436305 49.677358 84.403519 49.683789 84.363326 C 49.69022 84.323133 49.693608 84.293218 49.693608 84.273926 C 49.404219 84.286787 49.187179 84.293563 49.042485 84.293563 L 48.132979 84.293563 L 47.45085 84.273926 z M 66.070386 84.273926 C 66.091286 84.738554 66.101908 85.00865 66.101908 85.084212 L 66.11121 85.636633 L 66.101908 87.799809 L 66.060567 88.590975 C 66.12166 88.590975 66.210888 88.589023 66.328251 88.585807 C 66.445614 88.582592 66.530995 88.581156 66.584049 88.581156 C 66.64675 88.581156 66.739825 88.579721 66.863619 88.576506 C 66.987413 88.57329 67.079052 88.571338 67.138538 88.571338 C 67.316994 88.571338 67.576983 88.578113 67.917818 88.590975 L 68.353967 88.600277 C 68.347536 88.515068 68.344666 88.389667 68.344666 88.224072 C 68.142094 88.257834 67.950604 88.274715 67.77054 88.274715 C 67.394336 88.294008 67.01572 88.303654 66.634692 88.303654 C 66.628262 88.178252 66.624874 87.994514 66.624874 87.75175 L 66.624874 86.960583 L 66.624874 86.456738 L 66.979374 86.456738 L 67.256877 86.456738 L 67.601558 86.46604 C 67.741429 86.46604 67.929531 86.48005 68.165865 86.507381 C 68.146573 86.386803 68.136926 86.324102 68.136926 86.319279 C 68.136926 86.314456 68.146573 86.251755 68.165865 86.131177 C 68.103164 86.134392 68.010089 86.139215 67.886296 86.145646 C 67.762502 86.152077 67.667475 86.1569 67.601558 86.160116 L 67.266695 86.179236 L 66.624874 86.179236 L 66.624874 85.814917 L 66.624874 85.537931 L 66.653813 84.590186 L 67.119417 84.590186 L 67.75142 84.609306 C 67.846275 84.614129 67.947561 84.621364 68.055278 84.63101 C 68.164602 84.640656 68.250442 84.646915 68.313143 84.65013 C 68.300281 84.609937 68.294023 84.547237 68.294023 84.462028 C 68.294023 84.436305 68.296894 84.403519 68.303324 84.363326 C 68.309755 84.323133 68.313143 84.293218 68.313143 84.273926 C 68.023755 84.286787 67.806714 84.293563 67.66202 84.293563 L 66.753031 84.293563 L 66.070386 84.273926 z M 55.917517 84.283744 L 55.937154 84.452726 L 55.956274 85.438713 L 55.956274 86.121358 L 55.927336 86.823124 C 55.927336 87.143059 55.954839 87.420389 56.009501 87.655115 C 56.065771 87.888233 56.182962 88.085005 56.361418 88.245776 C 56.480388 88.350278 56.575875 88.419754 56.648222 88.453516 C 56.948864 88.611071 57.311575 88.689677 57.736011 88.689677 C 58.301925 88.689677 58.7495 88.524714 59.079081 88.195133 C 59.233422 88.052047 59.351588 87.844652 59.433582 87.572949 C 59.493067 87.405747 59.52924 87.149662 59.542102 86.804004 L 59.602563 85.055273 C 59.605779 84.968457 59.61399 84.840644 59.626851 84.671834 C 59.639713 84.501417 59.647407 84.372168 59.650623 84.283744 C 59.612037 84.296606 59.549337 84.302865 59.46252 84.302865 C 59.34355 84.290003 59.258686 84.283744 59.207239 84.283744 L 59.226359 84.857869 C 59.239221 85.160119 59.245479 85.386806 59.245479 85.537931 C 59.245479 85.621532 59.244044 85.743546 59.240828 85.904317 C 59.237613 86.065088 59.236178 86.186643 59.236178 86.268636 C 59.228139 86.611079 59.215105 86.887433 59.19742 87.098043 C 59.181343 87.307045 59.137935 87.495147 59.067196 87.662349 C 58.970733 87.882606 58.822651 88.060086 58.623295 88.195133 C 58.536479 88.256227 58.417853 88.30641 58.266728 88.344995 C 58.117211 88.38358 57.982622 88.402873 57.863652 88.402873 C 57.503524 88.402873 57.202078 88.317492 56.959314 88.147074 C 56.718157 87.975049 56.56864 87.7146 56.510763 87.365727 C 56.477001 87.187271 56.46012 86.97023 56.46012 86.714604 C 56.46012 86.658334 56.462072 86.573929 56.465287 86.461389 C 56.468503 86.348849 56.469938 86.265421 56.469938 86.210758 L 56.501461 84.867171 L 56.520581 84.442908 C 56.520581 84.370561 56.523969 84.317506 56.5304 84.283744 C 56.507892 84.285352 56.478953 84.28874 56.443583 84.293563 L 56.33713 84.308032 C 56.30176 84.311248 56.273797 84.312683 56.252897 84.312683 C 56.230389 84.312683 56.196627 84.311248 56.151611 84.308032 L 56.016736 84.293563 C 55.97172 84.28874 55.938417 84.285352 55.917517 84.283744 z M 61.440177 84.283744 C 61.380692 84.309468 61.27843 84.322502 61.133736 84.322502 C 61.120874 84.322502 61.025388 84.312855 60.846932 84.293563 L 60.875871 85.636633 L 60.875871 86.102238 L 60.875871 86.635022 C 60.872655 86.700938 60.870244 86.801248 60.868636 86.936296 C 60.867028 87.071343 60.863181 87.17217 60.85675 87.238086 L 60.796289 88.600277 C 60.944199 88.587415 61.053695 88.581156 61.124434 88.581156 C 61.196781 88.581156 61.298527 88.587415 61.430359 88.600277 L 61.370414 87.257206 C 61.370414 87.215406 61.368462 87.15127 61.365247 87.064453 C 61.362031 86.977637 61.360596 86.912984 61.360596 86.871183 C 61.360596 86.609126 61.366854 86.214606 61.379716 85.687276 L 61.440177 84.283744 z M 62.566207 84.283744 L 62.595146 85.004631 L 62.624084 87.218449 L 62.566207 88.441113 C 62.566207 88.515068 62.56236 88.568122 62.554321 88.600277 C 62.592906 88.600277 62.646937 88.598841 62.716069 88.595626 C 62.7852 88.59241 62.837278 88.590975 62.872648 88.590975 C 62.943387 88.590975 63.038415 88.597234 63.157385 88.610095 L 63.157385 88.472636 L 63.137748 87.375545 L 63.137748 87.098043 L 63.137748 86.635022 C 63.19241 86.635022 63.271992 86.636457 63.376493 86.639673 C 63.480995 86.642888 63.560117 86.64484 63.613171 86.64484 C 63.783589 86.64484 63.911402 86.638065 63.996611 86.625203 C 64.282783 86.575364 64.513317 86.506405 64.688558 86.417981 C 64.886306 86.323126 65.044494 86.188078 65.163464 86.012838 C 65.288866 85.823128 65.351567 85.595464 65.351567 85.330192 C 65.351567 85.208006 65.338073 85.099486 65.310742 85.004631 C 65.252865 84.781159 65.141933 84.617172 64.977946 84.512671 C 64.813959 84.40817 64.634527 84.344033 64.439994 84.319918 C 64.245461 84.295802 64.006257 84.283744 63.721692 84.283744 L 62.949646 84.293563 C 62.779229 84.293563 62.651416 84.290175 62.566207 84.283744 z M 52.727014 84.392265 C 52.984248 84.392265 53.228792 84.445319 53.460303 84.551428 C 53.691813 84.657537 53.885715 84.80849 54.041663 85.004631 C 54.194395 85.202379 54.298093 85.413161 54.352755 85.636633 C 54.409025 85.858497 54.436987 86.115559 54.436987 86.408162 C 54.436987 86.605911 54.416719 86.796425 54.376526 86.979704 C 54.321864 87.267484 54.215755 87.526498 54.058199 87.756401 C 53.902251 87.984696 53.703067 88.166539 53.460303 88.301587 C 53.219146 88.435027 52.95485 88.501575 52.667069 88.501575 C 52.149386 88.501575 51.724951 88.310085 51.393762 87.92745 C 51.091512 87.593046 50.940043 87.129566 50.940043 86.53632 C 50.940043 86.147254 51.004696 85.790342 51.133313 85.465584 C 51.26193 85.139219 51.460138 84.87877 51.728625 84.684237 C 51.998721 84.489704 52.331517 84.392265 52.727014 84.392265 z M 63.702055 84.519906 C 63.814595 84.519906 63.932761 84.530528 64.056555 84.551428 C 64.289673 84.575544 64.458024 84.647891 64.560917 84.768469 C 64.69918 84.926025 64.76814 85.123773 64.76814 85.361715 C 64.76814 85.479078 64.745459 85.606891 64.700444 85.745154 C 64.657035 85.881809 64.60111 85.986942 64.531978 86.060897 C 64.374423 86.242568 64.120232 86.351089 63.769751 86.386458 C 63.628272 86.400928 63.519752 86.408162 63.444189 86.408162 C 63.299495 86.408162 63.197234 86.400928 63.137748 86.386458 L 63.137748 85.055273 L 63.147567 84.688888 L 63.147567 84.54161 C 63.372646 84.52714 63.557361 84.519906 63.702055 84.519906 z M 89.937146 87.427738 C 89.571725 87.427738 89.344248 87.5405 89.255017 87.765702 C 89.255017 87.973908 89.263855 88.130764 89.280855 88.236991 C 89.30635 88.275233 89.446556 88.39632 89.701501 88.600277 L 92.314779 90.244621 L 92.913708 90.244621 L 90.797559 88.16051 C 90.695581 88.050034 90.589191 87.93532 90.478715 87.816345 C 90.368238 87.693122 90.266271 87.597527 90.172791 87.529541 C 90.096307 87.482802 90.017879 87.448985 89.937146 87.427738 z M 69.783854 91.05439 C 69.737113 91.462303 69.694453 91.831938 69.656213 92.163367 C 69.617972 92.490547 69.582203 92.764586 69.54821 92.985539 L 68.73844 99.047184 L 68.164832 102.48883 L 68.164832 102.648 C 68.283806 102.631 68.457829 102.62268 68.68728 102.62268 C 68.772262 102.62268 68.885024 102.62661 69.025244 102.63508 C 69.165464 102.64355 69.269901 102.648 69.337887 102.648 L 69.337887 102.28471 L 69.414368 100.61453 L 70.147139 94.088314 C 70.614539 94.984871 71.045952 95.808942 71.441117 96.561031 C 71.836283 97.30887 72.214242 98.037863 72.575415 98.747461 C 72.936587 99.45281 73.248865 100.08374 73.512309 100.64037 L 74.430082 102.52036 L 74.608883 102.52036 C 74.825587 102.06995 75.037848 101.62189 75.246053 101.17574 C 75.458507 100.72958 75.630579 100.3766 75.762301 100.1174 L 76.648035 98.390377 L 78.999829 94.088314 C 79.101808 94.912636 79.206245 95.739176 79.312472 96.567749 L 79.83492 102.648 C 80.009133 102.614 80.287593 102.59684 80.670011 102.59684 C 80.848473 102.59684 81.090648 102.614 81.396582 102.648 C 81.337095 102.15935 81.249825 101.49409 81.135099 100.65277 C 81.024623 99.807204 80.929028 99.027742 80.848295 98.313896 L 80.039042 91.05439 L 79.83492 91.05439 C 79.635214 91.419812 79.369499 91.893368 79.03807 92.475492 C 78.71089 93.053368 78.496676 93.433797 78.394698 93.616508 L 76.202067 97.663806 C 76.010858 98.029228 75.813294 98.392489 75.609338 98.753662 C 75.409631 99.110585 75.173829 99.537578 74.901888 100.03472 C 74.013828 98.54754 73.159845 97.026341 72.339771 95.471175 L 70.070658 91.05439 L 69.783854 91.05439 z M 88.394604 91.213554 C 88.449844 92.441541 88.477804 93.155318 88.477804 93.355025 L 88.503125 94.814884 L 88.477804 100.53185 L 88.369283 102.62216 C 88.530748 102.62216 88.766549 102.61822 89.076733 102.60976 C 89.386917 102.60122 89.611924 102.59684 89.752144 102.59684 C 89.917858 102.59684 90.164454 102.59239 90.491634 102.58392 C 90.818814 102.57545 91.060989 102.57152 91.218205 102.57152 C 91.689853 102.57152 92.376186 102.58868 93.276994 102.62268 L 94.430412 102.648 C 94.413418 102.4228 94.40509 102.0914 94.40509 101.65374 C 93.869705 101.74298 93.364285 101.78759 92.888387 101.78759 C 91.8941 101.83859 90.893537 101.86407 89.886503 101.86407 C 89.869503 101.53264 89.860665 101.04582 89.860665 100.40421 L 89.860665 98.313896 L 89.860665 96.981677 L 90.797559 96.981677 L 91.530847 96.981677 L 92.441903 97.007515 C 92.811573 97.007515 93.308669 97.043285 93.933285 97.115519 C 93.882298 96.796837 93.856803 96.631139 93.856803 96.618392 C 93.856803 96.605645 93.882298 96.439947 93.933285 96.121265 C 93.76757 96.129765 93.521492 96.142512 93.194312 96.159505 C 92.867132 96.176499 92.616115 96.189246 92.441903 96.197746 L 91.556169 96.248905 L 89.860665 96.248905 L 89.860665 95.286174 L 89.860665 94.553402 L 89.937146 92.048645 L 91.167562 92.048645 L 92.837227 92.099805 C 93.087923 92.112551 93.35559 92.131672 93.640279 92.157166 C 93.929217 92.182659 94.156694 92.199308 94.322408 92.207808 C 94.288415 92.101581 94.271248 91.935882 94.271248 91.710681 C 94.271248 91.642695 94.279576 91.555942 94.29657 91.449715 C 94.313563 91.343485 94.322408 91.264541 94.322408 91.213554 C 93.557572 91.247547 92.984001 91.264714 92.601583 91.264714 L 90.198629 91.264714 L 88.394604 91.213554 z M 96.833366 91.213554 L 96.833366 91.627999 L 96.935685 94.865527 L 96.859204 100.71685 C 96.846457 101.03978 96.829291 101.37117 96.808044 101.7111 C 96.791044 102.04678 96.782723 102.35906 96.782723 102.648 C 97.131148 102.614 97.400767 102.59684 97.591976 102.59684 C 97.778935 102.59684 98.029435 102.614 98.343868 102.648 L 98.293225 99.174308 L 98.293225 98.447738 L 98.293225 97.115519 L 98.917476 97.115519 L 100.24969 98.677181 L 102.2382 101.2393 C 102.40816 101.473 102.60182 101.74313 102.81853 102.04907 C 103.03948 102.35075 103.1836 102.55027 103.25158 102.648 C 103.37056 102.63953 103.53235 102.62482 103.7363 102.60356 C 103.94026 102.58229 104.09321 102.57152 104.19519 102.57152 C 104.30567 102.57152 104.46695 102.58229 104.6794 102.60356 C 104.89185 102.62482 105.05951 102.63953 105.18273 102.648 L 104.89592 102.28471 L 104.08667 101.3411 L 100.64502 96.981677 C 101.60956 96.815963 102.41894 96.47182 103.0733 95.949182 C 103.7319 95.422295 104.06135 94.704097 104.06135 93.794792 C 104.06135 93.33589 103.94858 92.911367 103.72338 92.520451 C 103.4472 91.972318 103.02021 91.617382 102.44233 91.455916 C 101.86445 91.294451 101.1698 91.213554 100.35822 91.213554 L 98.140263 91.264714 L 96.833366 91.213554 z M 106.96091 91.213554 C 107.01618 92.441541 107.04411 93.155318 107.04411 93.355025 L 107.06943 94.814884 L 107.04411 100.53185 L 106.93559 102.62216 C 107.09706 102.62216 107.33286 102.61822 107.64304 102.60976 C 107.95322 102.60122 108.17875 102.59684 108.31897 102.59684 C 108.48468 102.59684 108.73076 102.59239 109.05794 102.58392 C 109.38512 102.57545 109.62729 102.57152 109.78451 102.57152 C 110.25616 102.57152 110.9425 102.58868 111.8433 102.62268 L 112.99724 102.648 C 112.98024 102.4228 112.9714 102.0914 112.9714 101.65374 C 112.43602 101.74298 111.9306 101.78759 111.4547 101.78759 C 110.46041 101.83859 109.45985 101.86407 108.45281 101.86407 C 108.43581 101.53264 108.42697 101.04582 108.42697 100.40421 L 108.42697 98.313896 L 108.42697 96.981677 L 109.36387 96.981677 L 110.09716 96.981677 L 111.00821 97.007515 C 111.37788 97.007515 111.8755 97.043285 112.50011 97.115519 C 112.44911 96.796837 112.42311 96.631139 112.42311 96.618392 C 112.42311 96.605645 112.44911 96.439947 112.50011 96.121265 C 112.3344 96.129765 112.0878 96.142512 111.76062 96.159505 C 111.43344 96.176499 111.18242 96.189246 111.00821 96.197746 L 110.12248 96.248905 L 108.42697 96.248905 L 108.42697 95.286174 L 108.42697 94.553402 L 108.50345 92.048645 L 109.73387 92.048645 L 111.40354 92.099805 C 111.65423 92.112551 111.92189 92.131672 112.20659 92.157166 C 112.49552 92.182659 112.723 92.199308 112.88872 92.207808 C 112.85472 92.101581 112.83756 91.935882 112.83756 91.710681 C 112.83756 91.642695 112.8464 91.555942 112.8634 91.449715 C 112.8804 91.343485 112.88872 91.264541 112.88872 91.213554 C 112.12388 91.247547 111.5503 91.264714 111.16789 91.264714 L 108.76494 91.264714 L 106.96091 91.213554 z M 47.533533 91.238875 C 47.588773 91.918729 47.616215 92.624182 47.616215 93.355025 L 47.616215 100.53185 L 47.507694 102.62216 C 47.66916 102.62216 47.905478 102.61822 48.215662 102.60976 C 48.525845 102.60122 48.750853 102.59684 48.891073 102.59684 C 49.056787 102.59684 49.303383 102.59239 49.630562 102.58392 C 49.957742 102.57545 50.199916 102.57152 50.357133 102.57152 C 50.828782 102.57152 51.514599 102.58868 52.415405 102.62268 L 53.6205 102.648 C 53.586506 102.40155 53.56934 102.23585 53.56934 102.15087 C 53.56934 102.03189 53.586506 101.8662 53.6205 101.65374 C 52.766433 101.74298 52.235004 101.78759 52.026799 101.78759 C 51.032512 101.83859 50.023623 101.86407 48.999593 101.86407 C 48.999593 101.69411 48.995174 101.44946 48.986674 101.13078 C 48.978174 100.8121 48.973755 100.56992 48.973755 100.40421 L 48.973755 98.313896 C 48.973755 98.101441 48.969853 97.773948 48.961353 97.332043 C 48.952853 96.890138 48.948433 96.55679 48.948433 96.331588 C 48.948433 95.48177 48.973928 94.636112 49.024915 93.794792 L 49.126717 91.238875 L 48.712789 91.238875 L 47.533533 91.238875 z M 55.997616 91.239392 L 56.048775 91.68536 L 56.099418 94.291919 L 56.099418 96.095943 L 56.022937 97.95061 C 56.022937 98.796179 56.095509 99.529073 56.239978 100.14944 C 56.388696 100.76556 56.698505 101.28619 57.170154 101.7111 C 57.484586 101.98729 57.737555 102.17016 57.928764 102.25939 C 58.723343 102.6758 59.681764 102.88364 60.803524 102.88364 C 62.299203 102.88364 63.482631 102.44832 64.353695 101.57726 C 64.761607 101.1991 65.073884 100.65102 65.290588 99.932918 C 65.447804 99.491013 65.543399 98.813005 65.577393 97.899451 L 65.736556 93.278544 C 65.745056 93.049093 65.766125 92.711323 65.800118 92.265169 C 65.834111 91.814765 65.855697 91.473091 65.864197 91.239392 C 65.762219 91.273385 65.59652 91.290035 65.367069 91.290035 C 65.052637 91.256042 64.827112 91.239392 64.691142 91.239392 L 64.742301 92.756095 C 64.776295 93.554924 64.793461 94.153987 64.793461 94.553402 C 64.793461 94.774354 64.789042 95.097426 64.780542 95.522335 C 64.772042 95.947243 64.767623 96.267847 64.767623 96.48455 C 64.746378 97.389606 64.71256 98.12055 64.66582 98.677181 C 64.623329 99.229562 64.508615 99.726655 64.321655 100.16856 C 64.06671 100.75068 63.675487 101.22034 63.1486 101.57726 C 62.91915 101.73873 62.60492 101.87061 62.205505 101.97259 C 61.81034 102.07457 61.455403 102.12555 61.140971 102.12555 C 60.189175 102.12555 59.392549 101.90002 58.750936 101.44962 C 58.113573 100.99497 57.718446 100.30669 57.565479 99.384631 C 57.476247 98.912983 57.431637 98.339411 57.431637 97.663806 C 57.431637 97.515088 57.436056 97.292032 57.444556 96.994596 C 57.453056 96.69716 57.456958 96.476057 57.456958 96.331588 L 57.540157 92.781417 L 57.5908 91.660038 C 57.5908 91.46883 57.599645 91.328623 57.616638 91.239392 C 57.557151 91.243639 57.480675 91.251967 57.387195 91.264714 L 57.106592 91.302954 C 57.013114 91.311454 56.93859 91.315873 56.88335 91.315873 C 56.823862 91.315873 56.73464 91.311454 56.615666 91.302954 L 56.259098 91.264714 C 56.140126 91.251987 56.052856 91.243659 55.997616 91.239392 z M 85.450081 91.239392 C 85.292865 91.307377 85.023246 91.341195 84.640828 91.341195 C 84.606836 91.341195 84.353867 91.3157 83.882218 91.264714 L 83.9587 94.814884 L 83.9587 96.044784 L 83.9587 97.453483 C 83.95022 97.627696 83.943846 97.89341 83.939579 98.250334 C 83.935333 98.607257 83.92454 98.872455 83.90754 99.046667 L 83.748376 102.648 C 84.139293 102.614 84.428031 102.59684 84.61499 102.59684 C 84.8062 102.59684 85.076335 102.614 85.42476 102.648 L 85.265597 99.097827 C 85.265597 98.98735 85.261177 98.817231 85.252677 98.587781 C 85.244177 98.35833 85.239758 98.188727 85.239758 98.078251 C 85.239758 97.385649 85.256925 96.342427 85.290918 94.948726 L 85.450081 91.239392 z M 99.701408 91.863643 C 100.19005 91.863643 100.53862 91.872488 100.74682 91.889482 C 101.2992 91.987211 101.72619 92.19752 102.02788 92.520451 C 102.3933 92.885872 102.57617 93.380499 102.57617 94.005115 C 102.57617 94.63398 102.38056 95.156567 101.98964 95.572978 C 101.59873 95.989388 101.08056 96.267849 100.4347 96.408069 C 99.99279 96.476054 99.531466 96.510388 99.051318 96.510388 C 98.962088 96.510388 98.830723 96.505969 98.65651 96.497469 C 98.482298 96.488969 98.352368 96.48455 98.267387 96.48455 L 98.318547 91.889482 C 98.615983 91.872488 99.076792 91.863643 99.701408 91.863643 z " /></g><g
       id="g2"
       transform="matrix(0.06935893,0,0,0.06935893,34.082074,25.478905)"><path
         d="M 1.3486992,106.55663 V 435.68097 H 1681.8202 V 106.55663 Z"
         fill="#000000"
         id="path1"
         sodipodi:nodetypes="ccccc"
         style="fill:#3c2156;fill-opacity:1;stroke-width:0.768547"
         inkscape:export-filename="C:\Users\David\Downloads\Evangelion.png"
         inkscape:export-xdpi="96"
         inkscape:export-ydpi="96" /><path
         d="m 1380.4313,222.69821 h 74.7601 l 51.6666,82.19697 v -68.75841 c -0.9537,-3.56187 -8.6893,-5.2841 -13.034,-5.42762 -4.1621,-0.22962 -5.7147,-5.79293 -2.5964,-8.02399 h 45.7954 c 1.1678,3.07913 -1.7222,7.72391 -7.6717,8.48065 -3.0008,0.38097 -7.189,1.61784 -8.037,2.73989 v 72.02021 c 0.1017,1.52651 7.5803,4.38384 9.1982,4.25336 6.106,-0.46577 8.585,5.77989 4.7361,8.9112 h -81.5446 l -47.7525,-77.5 v 63.80051 c 1.1873,4.59259 3.5227,4.64478 8.1805,4.67087 5.8582,0.0364 9.2243,4.97096 7.9066,8.29798 -0.6432,1.6309 -4.3186,0.11404 -22.702,0 -12.0686,-0.0749 -22.3107,0.47623 -22.8326,0 -2.1657,-2.16582 -0.6627,-7.22811 2.753,-7.90657 1.9701,-0.39141 5.3363,-1.13379 7.4891,-1.64394 l 3.9011,-0.93548 0.227,-36.66245 c 0.2505,-40.44613 0.2662,-40.31567 -7.7631,-39.92425 -2.8051,0.17092 -4.9579,-0.43969 -5.7016,-1.61784 -1.8396,-2.92257 -2.2571,-6.21044 3.0009,-7.08459 z m -523.1903,0.0221 c 0.54015,-0.0104 1.10901,0.0413 1.70918,0.167 4.33165,1.05943 12.86448,-2.06144 13.82996,4.33166 0.63149,8.84596 0.93287,17.7441 0.22703,26.61615 -2.7399,5.92341 -7.29336,2.92257 -18.266,3.60101 -5.58418,0.34836 -13.43855,1.24471 -15.9175,-5.28408 -0.43187,-7.54125 -6.11911,-13.56902 -13.17762,-15.91751 -10.92045,-3.10522 -22.57154,-2.49201 -33.66161,-1.53956 -7.16288,0.8037 -16.96129,2.15277 -19.30978,9.87668 -3.66623,11.80766 -2.36152,24.39815 -3.00084,36.79293 -0.45403,8.81986 2.57029,19.70118 6.81062,21.00589 10.86826,7.31945 24.78956,8.8851 37.57575,7.42382 5.41456,-1.1351 11.85985,-1.82659 15.5261,-6.35395 2.7138,-6.10607 1.52651,-13.04714 1.74832,-19.57071 1.64394,-8.23274 -8.15447,-6.28872 -13.30808,-6.95413 -5.42762,1.33081 -4.82745,-3.80976 -4.09681,-7.26725 19.96212,0.12368 39.92424,0.24789 59.88637,0.37184 l 0.31835,35.87964 c -0.32227,3.50967 0.92634,7.41077 -0.84676,10.58123 -5.59722,5.51894 -10.42467,-2.41373 -10.41162,-7.71086 -4.37079,-6.31482 -13.69949,-5.64942 -19.96212,-2.77904 -5.93644,3.54882 -11.82071,7.39772 -18.6574,8.98947 -12.39479,2.89647 -25.31146,2.33544 -37.96718,2.23106 -18.78788,-10e-4 -38.61954,-5.54503 -52.05808,-19.30976 -11.85985,-10.90741 -14.09091,-29.74748 -6.87584,-43.70791 9.19822,-17.48317 28.96464,-27.13805 47.88299,-29.48654 15.13468,-1.20555 30.5303,-1.69613 45.40405,1.47433 7.17592,0.73847 13.56902,4.63173 20.74495,5.04924 6.94108,0.58321 9.5244,-8.2458 15.9175,-8.37626 z m 451.431,0.36141 v 5.7e-4 c 0.4266,0.005 0.8428,0.0136 1.2473,0.0255 20.0927,0.59103 41.7509,6.75841 55.8418,15.9175 14.8737,9.66793 21.6582,30.92172 14.6127,46.0564 -6.393,13.6995 -25.4418,26.22475 -45.7954,30.26936 -27.2685,4.98401 -65.4966,3.875 -90.4166,-17.09175 -7.3326,-6.35396 -13.3082,-18.91835 -13.3082,-27.79041 1.2174,-39.79377 44.8822,-47.3611 77.761,-47.3611 z m -825.88388,0.0637 h 47.36112 l 4.56649,7.26725 c 2.5181,3.95329 4.5665,7.48906 4.5665,7.85438 -0.003,0.37054 1.08943,2.25716 2.42677,4.18813 1.3308,1.93098 8.54587,13.96044 16.04798,26.87711 22.04967,37.96718 22.8325,38.88047 27.26852,38.88047 l 3.9011,0.0243 0.57668,-37.31482 c 0.44882,-28.96464 0.21136,-37.57576 -1.06203,-38.35858 -0.90157,-0.57669 -3.71844,-1.06988 -6.26264,-1.09596 -6.7845,-0.0713 -9.48527,-3.30093 -5.79293,-6.92803 0.79327,-0.77762 2.00927,-0.79849 7.04546,-1.30472 h 68.75842 c 6.15825,1.44823 7.60649,4.30556 10.60733,10.00715 1.69612,3.20961 5.49284,9.61574 8.45454,14.22139 2.9617,4.63173 6.81061,11.05092 8.57197,14.22137 2.492,4.54041 15.26515,26.61617 23.87626,41.22897 0.55451,0.94461 1.1064,-13.82998 1.216,-32.8788 0.11494,-19.04882 -0.25703,-35.35774 -0.82719,-36.27104 -0.57016,-0.89112 -2.90951,-1.69613 -5.17971,-1.77441 -7.67173,-0.28573 -10.63342,-1.73527 -10.62038,-5.15362 l 0.0197,-3.65319 h 46.83923 l -0.0197,3.99241 c -0.0179,2.90952 -0.72803,3.34007 -7.17592,4.35775 -3.94024,0.62365 -7.5543,1.72222 -8.03704,2.43982 -0.9955,1.47432 -0.5245,68.75841 0.50492,72.15067 0.45013,1.46129 2.88342,2.53115 7.41078,3.28788 4.93182,0.81023 6.8628,1.73527 7.17593,3.41835 0.54798,2.92256 0.40968,7.07155 -4.77526,7.85438 h -76.19529 c -2.53115,-0.55711 -4.67087,-5.77989 -6.38005,-8.79377 -1.42214,-2.49201 -5.79293,-9.49832 -9.72012,-15.5261 -8.98947,-13.82997 -9.01557,-13.96043 -13.30808,-21.52778 -1.95707,-3.48358 -5.83207,-9.83754 -8.62416,-14.0909 -2.79208,-4.27947 -6.56271,-10.54209 -8.37626,-13.96045 -1.81356,-3.37921 -3.73149,-6.15824 -4.26642,-6.15824 -0.52971,-0.004 -0.84806,4.50126 -0.70715,10.00715 0.14091,5.50589 0.35749,20.35354 0.47882,32.87879 0.13961,14.35186 0.74891,23.35438 1.63091,24.26768 0.77629,0.78021 4.12289,1.65699 7.43686,1.94402 3.31398,0.28835 6.6149,0.88852 7.33249,1.33081 1.99621,1.23818 1.50043,8.78072 -0.72151,9.61574 h -96.02694 c -6.74537,-0.26877 -6.09301,-3.95328 -6.51052,-5.04924 -1.11161,-2.92256 2.77904,-5.83207 7.77609,-5.79293 2.62248,0.0163 4.78831,-0.71237 5.20582,-1.74832 0.57277,-1.44823 -4.63174,-11.55976 -11.09007,-21.52777 -0.69281,-1.06988 -1.65699,-2.81819 -2.15279,-3.88805 -0.49056,-1.06857 -4.64477,-8.06313 -9.23736,-15.5261 -4.5926,-7.48905 -10.02021,-16.70034 -12.06861,-20.35354 -4.14899,-7.58038 -5.61026,-8.29798 -7.42382,-3.66624 -0.67585,1.73527 -7.91961,14.6128 -16.04798,28.57323 -18.65741,31.96549 -18.39646,31.57408 -16.04798,34.96634 1.3569,1.94402 3.31397,2.75294 6.71928,2.79208 6.22348,0.0643 8.1936,1.51347 7.81523,5.33629 l -0.46839,5.8712 h -45.79545 c -2.3224,-0.9694 -1.95708,-9.7723 0.48926,-10.6856 1.13379,-0.42403 3.79672,-0.75934 5.91035,-0.7463 5.17971,0.0323 8.97644,-3.95328 15.39562,-16.17845 6.95413,-13.30809 14.61281,-26.87711 18.78789,-33.2702 2.76599,-4.33166 14.22138,-27.52947 18.91835,-36.532 z m -92.24327,0.3588 78.28283,0.48535 c -0.40315,12.77315 -12.19908,5.91035 -17.87458,17.09175 l -44.75168,77.76094 c -10.52904,0.52058 -21.26684,-0.0499 -31.83502,0.0532 -4.31861,-0.73847 -10.03325,1.52651 -13.30808,-1.56566 l -54.2761,-86.24159 c -1.8527,-0.99549 -3.31397,-1.47433 -4.46212,-1.5526 v -5.66247 c 11.79461,0.0732 23.61532,0.14613 35.35774,0.2192 4.67088,7.88047 -9.47222,5.94949 -12.40783,9.28956 12.22518,21.26683 25.05051,42.01178 37.05388,63.4091 6.13215,7.34553 6.73232,1.04638 15.00421,-11.48149 9.51137,-14.48232 15.78704,-29.09512 24.52862,-44.09932 9.49832,-16.4394 -14.87374,-5.88427 -11.28578,-17.61365 z m 644.52865,0.0801 h 62.8872 l -0.02,3.22265 c -0.017,2.75294 -0.8545,3.36615 -5.5711,4.40993 l -5.3362,1.18599 v 76.45622 h 51.7971 l 5.1537,-9.43308 c 4.6577,-8.65024 9.1198,-14.22137 11.4292,-14.22137 0.4697,0.003 1.944,0.805 3.2749,1.78745 2.2962,1.68308 2.3093,2.00926 0.2479,6.24958 -2.4138,4.98401 -6.2627,22.18014 -6.2757,25.83333 H 1031.844 c -1.1795,-0.82197 -1.4875,-4.47516 -0.9133,-6.68012 0.7932,-3.05304 1.4482,-3.35312 7.3455,-3.32703 l 6.4844,0.0406 v -36.66249 c 0,-20.22307 0.4279,-37.57576 0,-38.75 -0.5206,-1.36995 -2.7399,-2.06145 -6.0539,-2.0745 -6.5496,-0.0406 -9.0677,-1.12858 -9.0416,-3.91415 0.015,-2.45286 0.6458,-3.49662 5.4537,-4.10984 z m -874.15829,0.48014 h 140.9091 l 0.78413,21.91919 c 0.0743,6.88889 -8.61111,7.76305 -10.242,1.53956 -1.1051,-6.02777 -2.81819,-14.61279 -9.72012,-16.17845 l -65.2357,-0.40577 v 35.35775 h 41.09849 c 5.97559,0 6.70623,0.58451 11.4032,-3.84891 0.61713,-6.51052 11.01178,-11.15529 13.008,-4.87962 2.20496,6.95412 1.24731,12.02945 1.15858,18.39646 -0.0809,5.7016 -2.2441,12.7601 -8.78072,9.36785 -4.85354,-3.11827 -6.07997,-10.90741 -13.30808,-10.18982 l -44.62122,-0.31443 c -0.0691,11.19444 0.0691,22.44108 0,33.53114 l 66.54041,0.74108 c 6.92803,1.51347 10.50294,-5.61027 12.69487,-10.72475 2.25715,-5.25799 5.96254,-3.92719 11.39014,-3.96633 1.56567,-0.0104 0.62627,2.94865 -0.0626,4.77525 l -7.03241,18.91835 -127.2096,-0.42794 c -5.06229,-0.10086 -16.96128,1.18076 -13.96044,-7.18897 4.39689,-2.12669 8.65026,-1.28645 13.43855,-1.83966 V 237.1481 c 0,-5.50589 -1.68308,-6.83671 -5.88426,-6.57576 -4.50126,0.28182 -13.43855,-3.4314 -6.26262,-6.49747 z m 1004.62959,1.15859 h 65.3663 c 1.9831,3.74452 -0.715,6.27567 -6.6411,6.23652 -3.614,-0.0225 -5.0231,0.56103 -5.3754,2.23106 -0.2701,1.24079 -0.4174,18.39647 -0.3287,38.09766 0.1196,26.61615 0.5662,36.01009 1.7222,36.40151 0.8598,0.27399 4.8796,0.8872 8.9243,1.3569 7.6847,0.90287 7.4499,2.20496 7.4107,6.68014 l -0.012,1.34385 h -76.0647 c -4.4622,3e-5 0.5845,-7.78914 7.6716,-7.76305 11.4685,0.0381 10.8161,2.46591 10.5682,-38.88047 -0.117,-20.0926 -0.7136,-37.05387 -1.3308,-37.70623 -0.6119,-0.64192 -3.2748,-1.52652 -5.9104,-1.97012 -5.3884,-0.90416 -8.8329,-4.25337 -5.8841,-6.04082 z m -284.42753,0.15265 h 140.90903 l 0.7842,21.91918 c 0.074,6.88889 -8.6111,7.76305 -10.242,1.53957 -1.1051,-6.02777 -2.8182,-14.61279 -9.7201,-16.17845 l -65.23572,-0.40577 v 35.35775 h 41.09849 c 5.97559,0 6.70623,0.58451 11.4032,-3.84891 0.61713,-6.51053 11.01173,-11.1553 13.00803,-4.87962 2.2049,6.95411 1.2473,12.02945 1.1586,18.39646 -0.081,5.7016 -2.2441,12.7601 -8.78077,9.36784 -4.85353,-3.11826 -6.07997,-10.9074 -13.30808,-10.18981 l -44.62122,-0.31444 c -0.0696,11.19445 0.0695,22.44108 0,33.53115 l 66.54037,0.74108 c 6.928,1.51346 10.503,-5.61027 12.6949,-10.72476 2.2572,-5.25799 5.9625,-3.92718 11.3902,-3.96632 1.5656,-0.0105 0.6262,2.94865 -0.062,4.77525 l -7.0323,18.91835 -127.20966,-0.42794 c -5.06229,-0.10073 -16.96128,1.18076 -13.96044,-7.18897 4.39689,-2.12669 8.65026,-1.28645 13.43856,-1.83966 v -71.49837 c 0,-5.50589 -1.68308,-6.8367 -5.88426,-6.57576 -4.50127,0.28183 -13.43855,-3.43139 -6.26263,-6.49746 z m 429.25083,5.98863 c -8.4023,-0.0571 -17.2222,1.33081 -24.5286,3.74453 -8.7416,2.85732 -9.159,8.6372 -9.3026,32.87879 -0.1761,29.48653 1.6439,34.44444 14.4823,39.01095 11.0379,2.88341 28.3123,3.88805 42.1423,-2.85733 7.1629,-3.49663 7.4369,-8.51978 6.915,-35.0968 -0.518,-26.4857 -1.4483,-29.87795 -9.5506,-33.92257 -5.5058,-2.59637 -12.6034,-3.77062 -19.962,-3.82281 z"
         fill="#ffffff"
         id="path2"
         style="fill:#a2f321;fill-opacity:1;stroke-width:1.30471" /></g></g></svg>
